<?xml version="1.0" ?><svg height="512" preserveAspectRatio="xMidYMid" viewBox="0 0 512 512" width="512" xmlns="http://www.w3.org/2000/svg" xmlns:xlink="http://www.w3.org/1999/xlink"><defs><style>
      .cls-1 {
        fill: #fff;
      }

      .cls-2 {
        fill: #7b519b;
      }

      .cls-2, .cls-3 {
        fill-rule: evenodd;
      }

      .cls-3 {
        fill: #000;
        opacity: 0.1;
      }
    </style></defs><circle class="cls-1" cx="256" cy="256" r="256"/><path class="cls-2" d="M256.000,512.000 C114.615,512.000 0.000,397.385 0.000,256.000 C0.000,114.615 114.615,0.000 256.000,0.000 C397.385,0.000 512.000,114.615 512.000,256.000 C512.000,397.385 397.385,512.000 256.000,512.000 ZM217.044,133.011 C205.742,133.011 206.959,149.189 218.213,149.367 C255.481,149.958 333.364,182.180 335.138,273.204 C335.369,285.038 350.339,286.234 350.339,272.036 C350.339,168.008 259.044,133.011 217.044,133.011 ZM302.399,261.521 C302.399,269.796 317.600,269.783 317.600,262.690 C317.600,195.899 263.638,166.891 228.736,166.891 C216.314,166.891 222.243,183.247 227.567,183.247 C287.314,183.247 302.399,246.153 302.399,261.521 ZM236.921,215.959 C253.484,215.959 269.660,231.529 269.660,248.670 C269.660,256.354 283.691,258.705 283.691,249.839 C283.691,220.285 262.922,200.771 239.260,200.771 C227.428,200.771 229.231,215.959 236.921,215.959 ZM345.662,351.478 C319.604,334.430 288.122,304.054 276.676,305.916 C263.715,308.023 261.534,333.699 245.106,336.291 C216.475,340.808 148.362,283.072 153.904,245.165 C156.405,228.059 188.899,222.959 184.305,210.117 C179.419,196.460 145.357,153.632 137.535,143.526 C121.462,122.762 69.396,162.809 73.225,189.089 C75.903,207.463 109.947,274.644 160.919,325.776 C211.092,376.107 276.704,408.008 295.384,415.733 C320.640,426.179 372.060,368.749 345.662,351.478 Z"/><path class="cls-3" d="M436.999,75.012 C536.959,174.972 536.959,337.039 436.999,436.999 C337.039,536.959 174.972,536.959 75.012,436.999 "/></svg>